<svg width="180" height="174" viewBox="0 0 180 174" fill="none" xmlns="http://www.w3.org/2000/svg">
<line x1="93.7873" y1="120.87" x2="83.224" y2="0.130706" stroke="#F39F07" stroke-width="3"/>
<line y1="121.87" x2="180" y2="121.87" stroke="#F39F07" stroke-width="3"/>
<path d="M122.1 120.969C122.1 136.709 109.34 149.469 93.6 149.469C77.8599 149.469 65.1 136.709 65.1 120.969C65.1 105.229 77.8599 92.4692 93.6 92.4692C109.34 92.4692 122.1 105.229 122.1 120.969Z" stroke="#F39F07" stroke-width="3"/>
<rect x="13.2" y="123.37" width="160.8" height="50.4" fill="white"/>
<path d="M140.744 75.512V77H132.608V75.512H136.016V65.24C135.888 65.432 135.664 65.64 135.344 65.864C135.04 66.088 134.696 66.296 134.312 66.488C133.944 66.68 133.56 66.84 133.16 66.968C132.76 67.096 132.408 67.16 132.104 67.16V65.576C132.472 65.576 132.872 65.472 133.304 65.264C133.752 65.056 134.168 64.816 134.552 64.544C134.952 64.272 135.288 64.016 135.56 63.776C135.832 63.536 135.984 63.376 136.016 63.296H137.696V75.512H140.744ZM147.914 69.512C148.698 69.512 149.426 69.648 150.098 69.92C150.77 70.176 151.354 70.544 151.85 71.024C152.362 71.504 152.762 72.08 153.05 72.752C153.338 73.408 153.482 74.136 153.482 74.936C153.482 75.784 153.322 76.552 153.002 77.24C152.698 77.944 152.274 78.536 151.73 79.016C151.202 79.512 150.578 79.896 149.858 80.168C149.138 80.44 148.37 80.576 147.554 80.576C146.946 80.576 146.362 80.496 145.802 80.336C145.258 80.192 144.754 79.976 144.29 79.688C143.826 79.4 143.402 79.056 143.018 78.656C142.65 78.256 142.346 77.808 142.106 77.312L143.186 76.496C143.634 77.28 144.242 77.912 145.01 78.392C145.794 78.872 146.65 79.112 147.578 79.112C148.17 79.112 148.722 79.008 149.234 78.8C149.746 78.608 150.194 78.328 150.578 77.96C150.962 77.592 151.258 77.152 151.466 76.64C151.69 76.128 151.802 75.568 151.802 74.96C151.802 74.368 151.698 73.832 151.49 73.352C151.282 72.856 150.994 72.432 150.626 72.08C150.258 71.728 149.826 71.456 149.33 71.264C148.834 71.072 148.298 70.976 147.722 70.976C146.97 70.976 146.258 71.144 145.586 71.48C144.93 71.8 144.394 72.272 143.978 72.896H142.466C142.482 72.8 142.522 72.584 142.586 72.248C142.65 71.912 142.73 71.512 142.826 71.048C142.922 70.584 143.026 70.072 143.138 69.512C143.25 68.936 143.362 68.36 143.474 67.784C143.746 66.44 144.042 64.944 144.362 63.296H152.594V64.808H145.586L144.41 70.928C144.826 70.48 145.33 70.136 145.922 69.896C146.53 69.64 147.194 69.512 147.914 69.512ZM161.984 62.75C161.984 61.9375 162.273 61.2266 162.852 60.6172C163.438 60.0078 164.145 59.7031 164.973 59.7031C165.785 59.7031 166.477 60.0078 167.047 60.6172C167.625 61.2188 167.914 61.9297 167.914 62.75C167.914 63.5781 167.625 64.2852 167.047 64.8711C166.477 65.457 165.785 65.75 164.973 65.75C164.152 65.75 163.449 65.457 162.863 64.8711C162.277 64.2852 161.984 63.5781 161.984 62.75ZM164.973 64.25C165.395 64.25 165.75 64.1133 166.039 63.8398C166.328 63.5586 166.473 63.1953 166.473 62.75C166.473 62.2969 166.328 61.9258 166.039 61.6367C165.75 61.3398 165.395 61.1914 164.973 61.1914C164.543 61.1914 164.18 61.3477 163.883 61.6602C163.594 61.9648 163.449 62.3281 163.449 62.75C163.449 63.1719 163.594 63.5273 163.883 63.8164C164.18 64.1055 164.543 64.25 164.973 64.25Z" fill="#F39F07"/>
</svg>
