<svg width="200" height="208" viewBox="0 0 200 208" fill="none" xmlns="http://www.w3.org/2000/svg">
<path d="M81.25 144.658V87.5752H197.75V144.658H81.25Z" stroke="#F39F07" stroke-width="3.5"/>
<rect x="27.25" y="73.978" width="57.0825" height="116.5" transform="rotate(-90 27.25 73.978)" stroke="#F39F07" stroke-width="3.5"/>
<line x1="25" y1="133.282" x2="25" y2="78.7575" stroke="#F39F07"/>
<path d="M30.7929 103.293C30.4024 103.683 30.4024 104.317 30.7929 104.707L37.1569 111.071C37.5474 111.462 38.1805 111.462 38.5711 111.071C38.9616 110.681 38.9616 110.047 38.5711 109.657L32.9142 104L38.5711 98.3431C38.9616 97.9526 38.9616 97.3195 38.5711 96.9289C38.1805 96.5384 37.5474 96.5384 37.1569 96.9289L30.7929 103.293ZM72.5 103H52V105H72.5V103ZM52 103H31.5V105H52V103Z" fill="#F39F07"/>
<path d="M0.556 153.33C0.556 152.786 0.604 152.242 0.7 151.698C0.796 151.138 0.98 150.586 1.252 150.042C1.54 149.498 1.94 148.978 2.452 148.482C2.98 147.97 3.676 147.49 4.54 147.042C5.004 146.802 5.484 146.57 5.98 146.346C6.492 146.106 6.956 145.842 7.372 145.554C7.804 145.266 8.156 144.946 8.428 144.594C8.7 144.226 8.836 143.802 8.836 143.322C8.836 143.018 8.764 142.722 8.62 142.434C8.492 142.13 8.292 141.866 8.02 141.642C7.764 141.402 7.436 141.21 7.036 141.066C6.652 140.922 6.196 140.85 5.668 140.85C5.14 140.85 4.668 140.93 4.252 141.09C3.836 141.234 3.468 141.41 3.148 141.618C2.844 141.826 2.58 142.05 2.356 142.29C2.132 142.514 1.964 142.698 1.852 142.842L0.772 141.666C0.868 141.57 1.052 141.394 1.324 141.138C1.596 140.882 1.948 140.626 2.38 140.37C2.828 140.114 3.348 139.89 3.94 139.698C4.532 139.49 5.196 139.386 5.932 139.386C6.668 139.386 7.324 139.49 7.9 139.698C8.476 139.89 8.964 140.162 9.364 140.514C9.764 140.866 10.068 141.274 10.276 141.738C10.484 142.186 10.588 142.658 10.588 143.154C10.588 143.81 10.444 144.378 10.156 144.858C9.868 145.338 9.508 145.754 9.076 146.106C8.66 146.458 8.212 146.762 7.732 147.018C7.252 147.258 6.82 147.466 6.436 147.642C5.924 147.866 5.42 148.122 4.924 148.41C4.444 148.682 4.012 148.986 3.628 149.322C3.244 149.658 2.924 150.034 2.668 150.45C2.428 150.866 2.308 151.33 2.308 151.842H10.852V153.33H0.556ZM18.6636 145.842C19.4476 145.842 20.1756 145.978 20.8476 146.25C21.5196 146.506 22.1036 146.874 22.5996 147.354C23.1116 147.834 23.5116 148.41 23.7996 149.082C24.0876 149.738 24.2316 150.466 24.2316 151.266C24.2316 152.114 24.0716 152.882 23.7516 153.57C23.4476 154.274 23.0236 154.866 22.4796 155.346C21.9516 155.842 21.3276 156.226 20.6076 156.498C19.8876 156.77 19.1196 156.906 18.3036 156.906C17.6956 156.906 17.1116 156.826 16.5516 156.666C16.0076 156.522 15.5036 156.306 15.0396 156.018C14.5756 155.73 14.1516 155.386 13.7676 154.986C13.3996 154.586 13.0956 154.138 12.8556 153.642L13.9356 152.826C14.3836 153.61 14.9916 154.242 15.7596 154.722C16.5436 155.202 17.3996 155.442 18.3276 155.442C18.9196 155.442 19.4716 155.338 19.9836 155.13C20.4956 154.938 20.9436 154.658 21.3276 154.29C21.7116 153.922 22.0076 153.482 22.2156 152.97C22.4396 152.458 22.5516 151.898 22.5516 151.29C22.5516 150.698 22.4476 150.162 22.2396 149.682C22.0316 149.186 21.7436 148.762 21.3756 148.41C21.0076 148.058 20.5756 147.786 20.0796 147.594C19.5836 147.402 19.0476 147.306 18.4716 147.306C17.7196 147.306 17.0076 147.474 16.3356 147.81C15.6796 148.13 15.1436 148.602 14.7276 149.226H13.2156C13.2316 149.13 13.2716 148.914 13.3356 148.578C13.3996 148.242 13.4796 147.842 13.5756 147.378C13.6716 146.914 13.7756 146.402 13.8876 145.842C13.9996 145.266 14.1116 144.69 14.2236 144.114C14.4956 142.77 14.7916 141.274 15.1116 139.626H23.3436V141.138H16.3356L15.1596 147.258C15.5756 146.81 16.0796 146.466 16.6716 146.226C17.2796 145.97 17.9436 145.842 18.6636 145.842ZM45.4938 153.33H43.8618V146.346C43.8618 144.89 43.6298 143.818 43.1658 143.13C42.7018 142.442 42.0138 142.098 41.1018 142.098C40.6218 142.098 40.1658 142.186 39.7338 142.362C39.3178 142.538 38.9258 142.786 38.5578 143.106C38.2058 143.426 37.8938 143.81 37.6218 144.258C37.3498 144.69 37.1418 145.17 36.9978 145.698V153.33H35.3658V146.346C35.3658 144.858 35.1418 143.778 34.6938 143.106C34.2458 142.434 33.5578 142.098 32.6298 142.098C31.6858 142.098 30.8458 142.426 30.1098 143.082C29.3738 143.738 28.8458 144.602 28.5258 145.674V153.33H26.8938V140.826H28.3818V143.658C28.8938 142.698 29.5658 141.954 30.3978 141.426C31.2298 140.882 32.1498 140.61 33.1578 140.61C34.2138 140.61 35.0538 140.906 35.6778 141.498C36.3178 142.09 36.7098 142.866 36.8538 143.826C38.0218 141.682 39.6298 140.61 41.6778 140.61C42.3818 140.61 42.9738 140.738 43.4538 140.994C43.9498 141.25 44.3418 141.618 44.6298 142.098C44.9338 142.562 45.1498 143.13 45.2778 143.802C45.4218 144.458 45.4938 145.194 45.4938 146.01V153.33ZM67.5484 153.33H65.9164V146.346C65.9164 144.89 65.6844 143.818 65.2204 143.13C64.7564 142.442 64.0684 142.098 63.1564 142.098C62.6764 142.098 62.2204 142.186 61.7884 142.362C61.3724 142.538 60.9804 142.786 60.6124 143.106C60.2604 143.426 59.9484 143.81 59.6764 144.258C59.4044 144.69 59.1964 145.17 59.0524 145.698V153.33H57.4204V146.346C57.4204 144.858 57.1964 143.778 56.7484 143.106C56.3004 142.434 55.6124 142.098 54.6844 142.098C53.7404 142.098 52.9004 142.426 52.1644 143.082C51.4284 143.738 50.9004 144.602 50.5804 145.674V153.33H48.9484V140.826H50.4364V143.658C50.9484 142.698 51.6204 141.954 52.4524 141.426C53.2844 140.882 54.2044 140.61 55.2124 140.61C56.2684 140.61 57.1084 140.906 57.7324 141.498C58.3724 142.09 58.7644 142.866 58.9084 143.826C60.0764 141.682 61.6844 140.61 63.7324 140.61C64.4364 140.61 65.0284 140.738 65.5084 140.994C66.0044 141.25 66.3964 141.618 66.6844 142.098C66.9884 142.562 67.2044 143.13 67.3324 143.802C67.4764 144.458 67.5484 145.194 67.5484 146.01V153.33Z" fill="#F39F07"/>
</svg>
