<svg width="340" height="112" viewBox="0 0 340 112" fill="none" xmlns="http://www.w3.org/2000/svg">
<rect y="1" width="140" height="20" fill="#F39F07"/>
<rect x="200" y="49.0479" width="140" height="20" fill="#F39F07"/>
<path d="M210.978 4.29097C210.588 3.90045 209.955 3.90045 209.564 4.29097L203.2 10.6549C202.81 11.0455 202.81 11.6786 203.2 12.0691C203.591 12.4597 204.224 12.4597 204.614 12.0691L210.271 6.41229L215.928 12.0691C216.319 12.4597 216.952 12.4597 217.342 12.0691C217.733 11.6786 217.733 11.0455 217.342 10.6549L210.978 4.29097ZM211.271 48.0967V4.99808H209.271V48.0967H211.271Z" fill="#F39F07"/>
<path d="M229.056 32.0479C229.056 31.5039 229.104 30.9599 229.2 30.4159C229.296 29.8559 229.48 29.3039 229.752 28.7599C230.04 28.2159 230.44 27.6959 230.952 27.1999C231.48 26.6879 232.176 26.2079 233.04 25.7599C233.504 25.5199 233.984 25.2879 234.48 25.0639C234.992 24.8239 235.456 24.5599 235.872 24.2719C236.304 23.9839 236.656 23.6639 236.928 23.3119C237.2 22.9439 237.336 22.5199 237.336 22.0399C237.336 21.7359 237.264 21.4399 237.12 21.1519C236.992 20.8479 236.792 20.5839 236.52 20.3599C236.264 20.1199 235.936 19.9279 235.536 19.7839C235.152 19.6399 234.696 19.5679 234.168 19.5679C233.64 19.5679 233.168 19.6479 232.752 19.8079C232.336 19.9519 231.968 20.1279 231.648 20.3359C231.344 20.5439 231.08 20.7679 230.856 21.0079C230.632 21.2319 230.464 21.4159 230.352 21.5599L229.272 20.3839C229.368 20.2879 229.552 20.1119 229.824 19.8559C230.096 19.5999 230.448 19.3439 230.88 19.0879C231.328 18.8319 231.848 18.6079 232.44 18.4159C233.032 18.2079 233.696 18.1039 234.432 18.1039C235.168 18.1039 235.824 18.2079 236.4 18.4159C236.976 18.6079 237.464 18.8799 237.864 19.2319C238.264 19.5839 238.568 19.9919 238.776 20.4559C238.984 20.9039 239.088 21.3759 239.088 21.8719C239.088 22.5279 238.944 23.0959 238.656 23.5759C238.368 24.0559 238.008 24.4719 237.576 24.8239C237.16 25.1759 236.712 25.4799 236.232 25.7359C235.752 25.9759 235.32 26.1839 234.936 26.3599C234.424 26.5839 233.92 26.8399 233.424 27.1279C232.944 27.3999 232.512 27.7039 232.128 28.0399C231.744 28.3759 231.424 28.7519 231.168 29.1679C230.928 29.5839 230.808 30.0479 230.808 30.5599H239.352V32.0479H229.056ZM247.164 24.5599C247.948 24.5599 248.676 24.6959 249.348 24.9679C250.02 25.2239 250.604 25.5919 251.1 26.0719C251.612 26.5519 252.012 27.1279 252.3 27.7999C252.588 28.4559 252.732 29.1839 252.732 29.9839C252.732 30.8319 252.572 31.5999 252.252 32.2879C251.948 32.9919 251.524 33.5839 250.98 34.0639C250.452 34.5599 249.828 34.9439 249.108 35.2159C248.388 35.4879 247.62 35.6239 246.804 35.6239C246.196 35.6239 245.612 35.5439 245.052 35.3839C244.508 35.2399 244.004 35.0239 243.54 34.7359C243.076 34.4479 242.652 34.1039 242.268 33.7039C241.9 33.3039 241.596 32.8559 241.356 32.3599L242.436 31.5439C242.884 32.3279 243.492 32.9599 244.26 33.4399C245.044 33.9199 245.9 34.1599 246.828 34.1599C247.42 34.1599 247.972 34.0559 248.484 33.8479C248.996 33.6559 249.444 33.3759 249.828 33.0079C250.212 32.6399 250.508 32.1999 250.716 31.6879C250.94 31.1759 251.052 30.6159 251.052 30.0079C251.052 29.4159 250.948 28.8799 250.74 28.3999C250.532 27.9039 250.244 27.4799 249.876 27.1279C249.508 26.7759 249.076 26.5039 248.58 26.3119C248.084 26.1199 247.548 26.0239 246.972 26.0239C246.22 26.0239 245.508 26.1919 244.836 26.5279C244.18 26.8479 243.644 27.3199 243.228 27.9439H241.716C241.732 27.8479 241.772 27.6319 241.836 27.2959C241.9 26.9599 241.98 26.5599 242.076 26.0959C242.172 25.6319 242.276 25.1199 242.388 24.5599C242.5 23.9839 242.612 23.4079 242.724 22.8319C242.996 21.4879 243.292 19.9919 243.612 18.3439H251.844V19.8559H244.836L243.66 25.9759C244.076 25.5279 244.58 25.1839 245.172 24.9439C245.78 24.6879 246.444 24.5599 247.164 24.5599ZM280.111 32.0479H278.479V25.0639C278.479 23.6079 278.247 22.5359 277.783 21.8479C277.319 21.1599 276.631 20.8159 275.719 20.8159C275.239 20.8159 274.783 20.9039 274.351 21.0799C273.935 21.2559 273.543 21.5039 273.175 21.8239C272.823 22.1439 272.511 22.5279 272.239 22.9759C271.967 23.4079 271.759 23.8879 271.615 24.4159V32.0479H269.983V25.0639C269.983 23.5759 269.759 22.4959 269.311 21.8239C268.863 21.1519 268.175 20.8159 267.247 20.8159C266.303 20.8159 265.463 21.1439 264.727 21.7999C263.991 22.4559 263.463 23.3199 263.143 24.3919V32.0479H261.511V19.5439H262.999V22.3759C263.511 21.4159 264.183 20.6719 265.015 20.1439C265.847 19.5999 266.767 19.3279 267.775 19.3279C268.831 19.3279 269.671 19.6239 270.295 20.2159C270.935 20.8079 271.327 21.5839 271.471 22.5439C272.639 20.3999 274.247 19.3279 276.295 19.3279C276.999 19.3279 277.591 19.4559 278.071 19.7119C278.567 19.9679 278.959 20.3359 279.247 20.8159C279.551 21.2799 279.767 21.8479 279.895 22.5199C280.039 23.1759 280.111 23.9119 280.111 24.7279V32.0479ZM302.166 32.0479H300.534V25.0639C300.534 23.6079 300.302 22.5359 299.838 21.8479C299.374 21.1599 298.686 20.8159 297.774 20.8159C297.294 20.8159 296.838 20.9039 296.406 21.0799C295.99 21.2559 295.598 21.5039 295.23 21.8239C294.878 22.1439 294.566 22.5279 294.294 22.9759C294.022 23.4079 293.814 23.8879 293.67 24.4159V32.0479H292.038V25.0639C292.038 23.5759 291.814 22.4959 291.366 21.8239C290.918 21.1519 290.23 20.8159 289.302 20.8159C288.358 20.8159 287.518 21.1439 286.782 21.7999C286.046 22.4559 285.518 23.3199 285.198 24.3919V32.0479H283.566V19.5439H285.054V22.3759C285.566 21.4159 286.238 20.6719 287.07 20.1439C287.902 19.5999 288.822 19.3279 289.83 19.3279C290.886 19.3279 291.726 19.6239 292.35 20.2159C292.99 20.8079 293.382 21.5839 293.526 22.5439C294.694 20.3999 296.302 19.3279 298.35 19.3279C299.054 19.3279 299.646 19.4559 300.126 19.7119C300.622 19.9679 301.014 20.3359 301.302 20.8159C301.606 21.2799 301.822 21.8479 301.95 22.5199C302.094 23.1759 302.166 23.9119 302.166 24.7279V32.0479Z" fill="#F39F07"/>
<path d="M146.232 100.336C147.288 100.512 148.128 100.992 148.752 101.776C149.392 102.56 149.712 103.528 149.712 104.68C149.712 105.4 149.576 106.056 149.304 106.648C149.048 107.256 148.672 107.768 148.176 108.184C147.696 108.616 147.112 108.944 146.424 109.168C145.752 109.408 145 109.528 144.168 109.528C142.952 109.528 141.888 109.28 140.976 108.784C140.064 108.304 139.376 107.632 138.912 106.768L140.04 105.736C140.376 106.44 140.888 107 141.576 107.416C142.264 107.832 143.128 108.04 144.168 108.04C145.368 108.04 146.312 107.744 147 107.152C147.688 106.576 148.032 105.744 148.032 104.656C148.032 103.552 147.672 102.68 146.952 102.04C146.232 101.4 145.192 101.08 143.832 101.08H143.232V99.688H143.88C145.112 99.688 146.056 99.408 146.712 98.848C147.368 98.272 147.696 97.528 147.696 96.616C147.696 96.136 147.608 95.712 147.432 95.344C147.256 94.976 147.008 94.672 146.688 94.432C146.384 94.176 146.016 93.984 145.584 93.856C145.168 93.728 144.712 93.664 144.216 93.664C143.304 93.664 142.496 93.872 141.792 94.288C141.104 94.688 140.584 95.248 140.232 95.968L139.176 94.96C139.368 94.544 139.64 94.168 139.992 93.832C140.344 93.48 140.744 93.184 141.192 92.944C141.64 92.704 142.136 92.52 142.68 92.392C143.224 92.248 143.784 92.176 144.36 92.176C145.096 92.176 145.768 92.28 146.376 92.488C147 92.696 147.536 92.992 147.984 93.376C148.432 93.744 148.776 94.192 149.016 94.72C149.272 95.248 149.4 95.832 149.4 96.472C149.4 96.952 149.328 97.416 149.184 97.864C149.04 98.296 148.832 98.688 148.56 99.04C148.288 99.376 147.952 99.664 147.552 99.904C147.168 100.128 146.728 100.272 146.232 100.336ZM164.188 98.968C164.188 100.024 164.036 101 163.732 101.896C163.428 102.776 163.004 103.544 162.46 104.2C161.932 104.84 161.3 105.344 160.564 105.712C159.828 106.064 159.028 106.24 158.164 106.24C157.3 106.24 156.5 106.064 155.764 105.712C155.028 105.344 154.388 104.84 153.844 104.2C153.316 103.544 152.9 102.776 152.596 101.896C152.292 101 152.14 100.024 152.14 98.968C152.14 97.912 152.292 96.944 152.596 96.064C152.9 95.168 153.316 94.4 153.844 93.76C154.388 93.104 155.028 92.592 155.764 92.224C156.5 91.856 157.3 91.672 158.164 91.672C159.028 91.672 159.828 91.856 160.564 92.224C161.3 92.592 161.932 93.104 162.46 93.76C163.004 94.4 163.428 95.168 163.732 96.064C164.036 96.944 164.188 97.912 164.188 98.968ZM162.532 98.968C162.532 98.104 162.42 97.32 162.196 96.616C161.988 95.912 161.692 95.312 161.308 94.816C160.924 94.304 160.46 93.912 159.916 93.64C159.388 93.352 158.804 93.208 158.164 93.208C157.508 93.208 156.908 93.352 156.364 93.64C155.836 93.912 155.38 94.304 154.996 94.816C154.612 95.312 154.308 95.912 154.084 96.616C153.876 97.32 153.772 98.104 153.772 98.968C153.772 99.832 153.876 100.616 154.084 101.32C154.308 102.024 154.612 102.632 154.996 103.144C155.38 103.64 155.836 104.024 156.364 104.296C156.908 104.568 157.508 104.704 158.164 104.704C158.804 104.704 159.388 104.568 159.916 104.296C160.46 104.024 160.924 103.64 161.308 103.144C161.692 102.632 161.988 102.024 162.196 101.32C162.42 100.616 162.532 99.832 162.532 98.968ZM192.033 106H190.401V99.016C190.401 97.56 190.169 96.488 189.705 95.8C189.241 95.112 188.553 94.768 187.641 94.768C187.161 94.768 186.705 94.856 186.273 95.032C185.857 95.208 185.465 95.456 185.097 95.776C184.745 96.096 184.433 96.48 184.161 96.928C183.889 97.36 183.681 97.84 183.537 98.368V106H181.905V99.016C181.905 97.528 181.681 96.448 181.233 95.776C180.785 95.104 180.097 94.768 179.169 94.768C178.225 94.768 177.385 95.096 176.649 95.752C175.913 96.408 175.385 97.272 175.065 98.344V106H173.433V93.496H174.921V96.328C175.433 95.368 176.105 94.624 176.937 94.096C177.769 93.552 178.689 93.28 179.697 93.28C180.753 93.28 181.593 93.576 182.217 94.168C182.857 94.76 183.249 95.536 183.393 96.496C184.561 94.352 186.169 93.28 188.217 93.28C188.921 93.28 189.513 93.408 189.993 93.664C190.489 93.92 190.881 94.288 191.169 94.768C191.473 95.232 191.689 95.8 191.817 96.472C191.961 97.128 192.033 97.864 192.033 98.68V106ZM214.088 106H212.456V99.016C212.456 97.56 212.224 96.488 211.76 95.8C211.296 95.112 210.608 94.768 209.696 94.768C209.216 94.768 208.76 94.856 208.328 95.032C207.912 95.208 207.52 95.456 207.152 95.776C206.8 96.096 206.488 96.48 206.216 96.928C205.944 97.36 205.736 97.84 205.592 98.368V106H203.96V99.016C203.96 97.528 203.736 96.448 203.288 95.776C202.84 95.104 202.152 94.768 201.224 94.768C200.28 94.768 199.44 95.096 198.704 95.752C197.968 96.408 197.44 97.272 197.12 98.344V106H195.488V93.496H196.976V96.328C197.488 95.368 198.16 94.624 198.992 94.096C199.824 93.552 200.744 93.28 201.752 93.28C202.808 93.28 203.648 93.576 204.272 94.168C204.912 94.76 205.304 95.536 205.448 96.496C206.616 94.352 208.224 93.28 210.272 93.28C210.976 93.28 211.568 93.408 212.048 93.664C212.544 93.92 212.936 94.288 213.224 94.768C213.528 95.232 213.744 95.8 213.872 96.472C214.016 97.128 214.088 97.864 214.088 98.68V106Z" fill="#F39F07"/>
<path d="M139.293 62.2929C138.902 62.6834 138.902 63.3166 139.293 63.7071L145.657 70.0711C146.047 70.4616 146.681 70.4616 147.071 70.0711C147.462 69.6805 147.462 69.0474 147.071 68.6569L141.414 63L147.071 57.3431C147.462 56.9526 147.462 56.3195 147.071 55.9289C146.681 55.5384 146.047 55.5384 145.657 55.9289L139.293 62.2929ZM199 62L140 62V64L199 64V62Z" fill="#F39F07"/>
<line x1="138" y1="79.0415" x2="138" y2="24.9327" stroke="#F39F07"/>
<line x1="145" y1="0.5" x2="221.007" y2="0.5" stroke="#F39F07"/>
</svg>
