<svg width="868" height="860" viewBox="0 0 868 860" fill="none" xmlns="http://www.w3.org/2000/svg">
<rect x="293" y="5" width="90" height="190" fill="#C4C4C4" stroke="#595959" stroke-width="10"/>
<rect x="293" y="225" width="90" height="190" fill="#C4C4C4" stroke="#595959" stroke-width="10"/>
<rect x="293" y="445" width="90" height="190" fill="#C4C4C4" stroke="#595959" stroke-width="10"/>
<rect x="293" y="665" width="90" height="190" fill="#C4C4C4" stroke="#595959" stroke-width="10"/>
<rect x="413" y="5" width="90" height="190" fill="#C4C4C4" stroke="#595959" stroke-width="10"/>
<rect x="413" y="225" width="90" height="190" fill="#C4C4C4" stroke="#595959" stroke-width="10"/>
<rect x="413" y="445" width="90" height="190" fill="#C4C4C4" stroke="#595959" stroke-width="10"/>
<rect x="413" y="665" width="90" height="190" fill="#C4C4C4" stroke="#595959" stroke-width="10"/>
<rect x="533" y="5" width="90" height="190" fill="#C4C4C4" stroke="#595959" stroke-width="10"/>
<rect x="533" y="225" width="90" height="190" fill="#C4C4C4" stroke="#595959" stroke-width="10"/>
<rect x="533" y="445" width="90" height="190" fill="#C4C4C4" stroke="#595959" stroke-width="10"/>
<rect x="533" y="665" width="90" height="190" fill="#C4C4C4" stroke="#595959" stroke-width="10"/>
<rect x="653" y="5" width="90" height="190" fill="#C4C4C4" stroke="#595959" stroke-width="10"/>
<rect x="653" y="225" width="90" height="190" fill="#C4C4C4" stroke="#595959" stroke-width="10"/>
<rect x="653" y="445" width="90" height="190" fill="#C4C4C4" stroke="#595959" stroke-width="10"/>
<rect x="653" y="665" width="90" height="190" fill="#C4C4C4" stroke="#595959" stroke-width="10"/>
<rect x="773" y="5" width="90" height="190" fill="#C4C4C4" stroke="#595959" stroke-width="10"/>
<rect x="773" y="225" width="90" height="190" fill="#C4C4C4" stroke="#595959" stroke-width="10"/>
<rect x="773" y="445" width="90" height="190" fill="#C4C4C4" stroke="#595959" stroke-width="10"/>
<rect x="773" y="665" width="90" height="190" fill="#C4C4C4" stroke="#595959" stroke-width="10"/>
<rect x="111" width="15" height="860" fill="#595959"/>
<rect x="8" width="15" height="860" fill="#595959"/>
<rect x="126" width="162" height="15" fill="#595959"/>
<rect x="126" y="185" width="162" height="15" fill="#595959"/>
<rect x="126" y="220" width="162" height="15" fill="#595959"/>
<rect x="126" y="405" width="162" height="15" fill="#595959"/>
<rect x="126" y="440" width="162" height="15" fill="#595959"/>
<rect x="126" y="625" width="162" height="15" fill="#595959"/>
<rect x="126" y="660" width="162" height="15" fill="#595959"/>
<rect x="126" y="845" width="162" height="15" fill="#595959"/>
<rect x="23" y="845" width="88" height="15" fill="#595959"/>
<rect x="23" width="88" height="15" fill="#595959"/>
<rect y="429" width="135" height="250" fill="#F39F07"/>
</svg>
